<?xml version="1.0" standalone="no"?>
<!DOCTYPE svg PUBLIC "-//W3C//DTD SVG 20010904//EN"
 "http://www.w3.org/TR/2001/REC-SVG-20010904/DTD/svg10.dtd">
<svg version="1.0" xmlns="http://www.w3.org/2000/svg"
 width="348.000000pt" height="731.000000pt" viewBox="0 0 348.000000 731.000000"
 preserveAspectRatio="xMidYMid meet">

<g transform="translate(0.000000,731.000000) scale(0.100000,-0.100000)"
fill="#000000" stroke="none">
<path d="M709 7286 c-259 -106 -362 -232 -414 -504 -51 -271 -74 -467 -56
-500 6 -11 25 -23 41 -27 17 -4 52 -25 77 -47 50 -43 70 -44 122 -8 14 10 87
37 161 60 l135 43 170 -1 c166 0 367 -22 407 -43 21 -11 24 -28 6 -33 -42 -12
-421 -58 -438 -53 -31 8 -82 -9 -152 -52 -35 -21 -190 -106 -346 -190 -296
-160 -319 -177 -379 -278 -29 -50 -28 -96 2 -102 28 -5 205 -154 303 -254 93
-96 118 -143 176 -327 149 -480 241 -1398 247 -2470 2 -287 14 -259 28 64 12
297 13 1233 1 1478 -21 437 -62 804 -120 1099 -17 82 -30 163 -30 179 0 33
-23 50 -67 50 -39 0 -174 81 -239 144 -93 89 -79 112 156 272 339 230 460 288
670 319 159 25 228 18 214 -19 -15 -40 -270 -188 -371 -215 -38 -10 -44 -17
-81 -89 l-41 -78 30 -95 c136 -431 237 -815 269 -1025 48 -323 90 -1125 105
-2014 3 -184 8 -366 10 -405 2 -38 7 -389 11 -780 4 -390 8 -717 10 -725 1 -8
3 -136 3 -284 1 -148 3 -267 5 -265 2 2 9 252 15 554 6 303 13 591 16 640 3
50 8 567 11 1150 9 1475 -2 1744 -106 2459 -16 114 -30 245 -30 291 0 77 -2
85 -31 121 -45 56 -107 189 -120 258 -16 87 -7 116 54 173 50 47 228 178 275
203 32 16 72 5 72 -21 0 -25 -36 -95 -89 -174 -23 -33 -41 -70 -41 -83 0 -91
138 -578 260 -919 15 -42 30 -33 30 17 0 67 3 70 90 70 87 0 90 -3 90 -70 0
-50 15 -59 30 -17 123 343 260 826 260 915 0 15 -18 54 -41 87 -53 79 -89 149
-89 174 0 26 40 37 72 21 47 -25 225 -156 275 -203 61 -57 70 -86 54 -173 -13
-69 -75 -202 -120 -258 -29 -36 -31 -44 -31 -121 0 -46 -14 -177 -30 -291
-104 -715 -115 -990 -106 -2489 4 -588 9 -1095 11 -1125 2 -30 9 -309 16 -620
6 -311 13 -567 15 -569 2 -2 4 117 5 265 0 148 2 276 3 284 2 8 6 335 10 725
4 391 9 742 11 780 2 39 7 221 10 405 14 829 52 1599 96 1940 31 242 113 570
263 1050 l45 144 -41 78 c-37 72 -43 79 -81 89 -100 27 -356 175 -371 214 -9
24 -9 23 31 31 53 10 228 -12 329 -42 130 -37 259 -108 524 -288 235 -160 249
-183 156 -272 -65 -63 -200 -144 -239 -144 -44 0 -67 -17 -67 -50 0 -16 -13
-97 -30 -179 -58 -294 -99 -665 -120 -1100 -20 -418 -8 -1576 19 -1736 6 -35
9 23 10 190 6 1051 96 1976 237 2444 64 209 87 255 183 355 98 102 277 252
306 257 14 3 21 13 23 35 3 34 -58 135 -107 177 -16 13 -152 91 -302 172 -151
82 -302 166 -337 186 -70 43 -121 60 -152 52 -17 -5 -398 41 -437 53 -19 5
-16 22 5 33 40 22 241 43 407 43 l170 1 135 -43 c74 -23 147 -50 161 -60 52
-36 72 -35 122 8 25 22 60 43 77 47 44 10 53 35 46 124 -9 96 -50 354 -76 472
-41 191 -131 303 -313 393 -141 69 -181 81 -102 29 272 -180 321 -283 318
-663 -2 -225 -7 -254 -47 -258 -35 -4 -263 43 -330 69 -73 27 -118 24 -326
-22 -227 -50 -260 -55 -260 -41 0 12 139 106 209 142 44 22 164 39 283 40 57
0 58 1 73 37 15 36 15 37 -51 187 -114 259 -127 280 -204 331 -71 48 -178 100
-186 92 -3 -2 36 -35 85 -71 145 -108 152 -119 201 -329 24 -106 25 -143 4
-151 -9 -3 -63 -6 -120 -6 -100 0 -105 -1 -127 -26 -12 -15 -75 -62 -140 -106
l-118 -79 3 33 c3 34 -10 47 -117 118 -33 22 -50 17 -18 -5 12 -8 33 -35 47
-60 29 -48 27 -63 -13 -99 -21 -19 -22 -19 -49 7 -35 33 -52 34 -82 2 -14 -14
-35 -25 -50 -25 -15 0 -36 11 -50 25 -30 32 -47 31 -82 -2 -27 -26 -28 -26
-49 -7 -40 36 -42 51 -13 99 14 25 35 52 47 60 32 22 15 27 -18 5 -107 -71
-120 -84 -117 -118 l3 -33 -118 79 c-65 44 -128 91 -140 106 -22 25 -27 26
-127 26 -57 0 -111 3 -120 6 -21 8 -20 45 4 151 49 210 56 221 201 329 49 36
88 69 85 71 -8 8 -115 -44 -186 -92 -77 -51 -90 -72 -204 -331 -66 -150 -66
-151 -51 -187 15 -36 16 -37 73 -37 119 -1 239 -18 283 -40 66 -34 209 -130
209 -141 0 -15 -26 -11 -239 36 -227 50 -273 54 -347 26 -67 -26 -295 -73
-330 -69 -40 4 -45 33 -47 263 -1 156 3 216 16 274 18 82 63 182 99 222 31 36
129 114 202 161 68 44 64 47 -15 14z"/>
</g>
</svg>
